Coordinates
version=1
nRows=6
nColumns=63
inDegrees=yes

Units are S.I. units (second, meters, Newtons, ...)
If the header above contains a line with 'inDegrees', this indicates whether rotational values are in degrees (yes) or radians (no).

endheader
time	pelvis_tilt	pelvis_list	pelvis_rotation	pelvis_tx	pelvis_ty	pelvis_tz	hip_flexion_r	hip_adduction_r	hip_rotation_r	knee_angle_r	knee_angle_r_beta	ankle_angle_r	subtalar_angle_r	mtp_angle_r	hip_flexion_l	hip_adduction_l	hip_rotation_l	knee_angle_l	knee_angle_l_beta	ankle_angle_l	subtalar_angle_l	mtp_angle_l	L5_S1_Flex_Ext	L5_S1_Lat_Bending	L5_S1_axial_rotation	L4_L5_Flex_Ext	L4_L5_Lat_Bending	L4_L5_axial_rotation	L3_L4_Flex_Ext	L3_L4_Lat_Bending	L3_L4_axial_rotation	L2_L3_Flex_Ext	L2_L3_Lat_Bending	L2_L3_axial_rotation	L1_L2_Flex_Ext	L1_L2_Lat_Bending	L1_L2_axial_rotation	L1_T12_Flex_Ext	L1_T12_Lat_Bending	L1_T12_axial_rotation	Abs_r3	Abs_r2	Abs_r1	Abs_t1	Abs_t2	neck_flexion	neck_bending	neck_rotation	arm_flex_r	arm_add_r	arm_rot_r	elbow_flex_r	pro_sup_r	wrist_flex_r	wrist_dev_r	arm_flex_l	arm_add_l	arm_rot_l	elbow_flex_l	pro_sup_l	wrist_flex_l	wrist_dev_l
1.000000	0.011131	1.555329	88.179384	0.250440	0.823976	0.629073	-8.317575	1.998702	3.109921	2.027545	0.035387	24.375463	-17.279270	0.000000	-8.119112	-2.459487	-7.931969	4.777637	0.083385	35.393121	12.372173	0.000000	-0.348558	-0.248236	-3.516568	-0.647307	-0.330154	-3.736353	-0.572646	-0.603561	-3.736353	-0.398367	-0.603561	-3.076997	-0.323671	-0.506202	-2.857211	-0.199166	-0.384517	-2.637426	-2.489716	-2.808093	-19.558094	0.000000	0.000000	25.010884	-2.871480	-6.221593	27.388183	-2.439549	33.833325	147.174985	70.978357	35.617834	18.824690	-3.968466	-13.033808	25.112202	22.712945	86.668946	-13.462620	0.812187
1.025641	-0.135505	1.895122	88.317346	0.251414	0.824426	0.629223	-8.703460	1.920563	3.000059	1.931844	0.033717	24.398774	-17.338457	0.000000	-8.249700	-2.429475	-8.056155	5.285544	0.092250	35.250043	12.311431	0.000000	-0.373590	-0.323608	-3.630899	-0.693794	-0.430399	-3.857830	-0.613771	-0.786820	-3.857830	-0.426976	-0.786820	-3.177037	-0.346916	-0.659901	-2.950106	-0.213469	-0.501269	-2.723174	-2.668517	-3.660718	-20.193972	0.000000	0.000000	24.559853	-3.805389	-6.874714	29.041609	-0.299948	28.518810	149.710090	71.329048	38.141801	14.354615	-5.354402	-13.621700	22.277022	21.943932	86.329193	-13.260778	1.324992
1.051282	-0.219859	2.171241	88.456790	0.252192	0.824937	0.629399	-9.012927	1.902408	2.847321	1.877354	0.032766	24.295887	-17.359709	0.000000	-8.320651	-2.453267	-8.186000	5.763726	0.100596	35.082508	12.283006	0.000000	-0.389151	-0.390881	-3.699811	-0.722692	-0.519871	-3.931049	-0.639336	-0.950387	-3.931049	-0.444760	-0.950387	-3.237335	-0.361365	-0.797084	-3.006096	-0.222361	-0.605474	-2.774858	-2.779665	-4.421720	-20.577239	0.000000	0.000000	23.876313	-5.176923	-7.848029	30.098221	1.343386	22.567562	151.556941	71.835344	39.893656	9.910941	-6.573006	-14.156573	20.127120	21.302351	85.888024	-13.033776	1.593352
1.076923	-0.252125	2.382778	88.587053	0.252823	0.825503	0.629606	-9.246433	1.934496	2.683837	1.856792	0.032407	24.073129	-17.359671	0.000000	-8.337502	-2.519323	-8.315812	6.195224	0.108127	34.903476	12.287348	0.000000	-0.395756	-0.451253	-3.722029	-0.734958	-0.600166	-3.954655	-0.650187	-1.097176	-3.954655	-0.452309	-1.097176	-3.256775	-0.367499	-0.920194	-3.024148	-0.226135	-0.698990	-2.791521	-2.826845	-5.104660	-20.700806	0.000000	0.000000	23.040392	-6.915697	-9.075924	30.605519	2.488744	16.023145	152.883443	72.295937	41.786646	5.332632	-7.546119	-14.639024	18.779059	20.762162	85.444009	-12.861103	1.570136
1.102564	-0.248401	2.550206	88.700343	0.253336	0.826024	0.629809	-9.429813	1.998523	2.493563	1.864955	0.032550	23.801973	-17.281360	0.000000	-8.336346	-2.607289	-8.428810	6.550470	0.114327	34.758474	12.320929	0.000000	-0.393867	-0.505187	-3.697076	-0.731450	-0.671898	-3.928144	-0.647084	-1.228311	-3.928144	-0.450150	-1.228311	-3.234942	-0.365745	-1.030177	-3.003875	-0.225056	-0.782534	-2.772807	-2.813352	-5.714772	-20.562030	0.000000	0.000000	22.024981	-9.050337	-10.582535	30.255135	3.102257	9.261250	153.862279	72.524366	43.857867	0.904671	-8.430635	-15.282954	13.543240	21.198242	89.284365	-13.079271	1.662677
1.128205	-0.193945	2.671158	88.786374	0.253654	0.826495	0.630024	-9.558148	2.101727	2.336423	1.905591	0.033259	23.461780	-17.183260	0.000000	-8.323385	-2.722504	-8.502758	6.812963	0.118909	34.662046	12.356729	0.000000	-0.384225	-0.547892	-3.638615	-0.713544	-0.728697	-3.866029	-0.631243	-1.332145	-3.866029	-0.439131	-1.332145	-3.183788	-0.356791	-1.117262	-2.956375	-0.219546	-0.848685	-2.728961	-2.744480	-6.197867	-20.236886	0.000000	0.000000	20.993783	-11.399582	-11.992527	28.762586	3.042164	2.702388	154.460297	73.401313	46.255848	-3.990864	-8.899097	-15.723645	11.732630	21.252288	90.772481	-13.147381	1.356263
